<?xml version="1.0" standalone="no"?>
<!DOCTYPE svg PUBLIC "-//W3C//DTD SVG 20010904//EN"
 "http://www.w3.org/TR/2001/REC-SVG-20010904/DTD/svg10.dtd">
<svg version="1.0" xmlns="http://www.w3.org/2000/svg"
 width="360.000000pt" height="220.000000pt" viewBox="0 0 360.000000 220.000000"
 preserveAspectRatio="xMidYMid meet">

<g transform="translate(0.000000,220.000000) scale(0.100000,-0.100000)"
fill="#000000" stroke="none">
<path d="M990 1694 c-226 -20 -419 -67 -557 -135 -99 -49 -163 -95 -163 -118
0 -20 23 -11 74 28 118 91 305 156 533 186 151 20 453 20 567 0 159 -28 259
-92 287 -183 32 -109 -89 -279 -225 -316 -51 -14 -468 -106 -480 -106 -3 0 1
17 10 38 31 73 114 304 114 318 0 22 -26 17 -42 -8 -8 -13 -40 -88 -71 -168
-32 -80 -67 -159 -77 -175 -17 -26 -45 -38 -221 -97 -340 -115 -428 -172 -334
-217 36 -17 147 -6 320 33 60 14 111 23 113 22 2 -2 -49 -108 -113 -236 -64
-128 -115 -239 -113 -248 4 -22 35 26 177 283 68 121 126 224 130 228 4 4 66
29 137 56 146 54 294 122 435 198 54 30 124 59 160 67 78 18 278 40 286 32 8
-7 -31 -96 -68 -157 -24 -38 -37 -50 -65 -55 -41 -8 -64 8 -64 43 0 23 3 25
30 20 22 -5 30 -3 30 8 0 15 -16 19 -55 15 -33 -3 -45 -20 -45 -60 0 -30 -6
-43 -27 -60 -33 -26 -49 -21 -45 14 2 21 -1 26 -20 26 -13 -1 -39 -14 -58 -30
-59 -51 -71 -33 -16 24 24 26 42 36 65 36 21 0 31 5 31 15 0 23 -62 19 -101
-8 -38 -25 -79 -81 -79 -107 0 -25 29 -29 83 -12 43 14 49 14 67 -3 10 -9 20
-31 22 -48 4 -40 20 -44 112 -26 67 12 80 20 119 68 14 18 23 20 58 15 23 -4
64 -1 93 6 47 11 55 10 90 -8 29 -16 44 -18 68 -11 38 10 77 45 90 79 8 20 5
28 -13 43 -30 24 -67 16 -153 -36 -50 -30 -82 -42 -121 -45 -83 -7 -78 20 14
70 45 25 39 40 -10 23 -23 -8 -43 -15 -45 -15 -11 0 0 29 38 106 l42 84 57 0
c70 0 119 9 119 23 0 6 -29 8 -85 3 -47 -3 -85 -4 -85 -2 0 2 7 20 15 39 19
46 19 57 -1 57 -9 0 -24 -20 -36 -49 l-21 -49 -91 -11 c-250 -30 -245 -31
-170 53 26 28 55 69 65 91 22 48 24 126 5 164 -22 41 -92 100 -150 126 -107
47 -169 57 -386 60 -113 1 -225 1 -250 -1z m455 -600 c-48 -39 -450 -214 -489
-214 -14 0 -12 9 14 59 26 53 34 61 77 75 89 29 358 95 388 95 29 0 29 0 10
-15z m765 -118 c0 -35 -65 -86 -90 -71 -12 8 11 51 38 73 21 16 52 15 52 -2z
m-1290 -11 c0 -22 -34 -87 -56 -107 -44 -39 -356 -108 -418 -92 -39 9 -28 25
46 63 60 30 387 149 416 150 6 1 12 -6 12 -14z m920 -17 c0 -2 -9 -25 -19 -53
l-19 -50 -11 28 c-15 39 -14 44 11 61 20 14 38 21 38 14z m-100 -83 c0 -17
-31 -35 -59 -35 -29 0 -26 11 11 37 32 23 48 22 48 -2z"/>
<path d="M2591 1092 c-14 -25 -14 -42 -1 -42 16 0 33 41 22 52 -7 7 -14 3 -21
-10z"/>
<path d="M2964 1031 c-23 -11 -50 -32 -59 -49 -19 -32 -63 -62 -90 -62 -12 0
-15 5 -9 23 14 43 10 52 -21 52 -16 -1 -40 -4 -52 -9 -18 -5 -23 -4 -23 8 0
25 -14 19 -66 -27 -51 -46 -92 -72 -101 -64 -2 3 0 22 6 44 14 48 14 66 1 58
-16 -10 -50 -82 -50 -105 0 -18 6 -20 60 -20 68 0 110 14 156 53 18 15 35 27
38 27 3 0 6 -18 6 -40 0 -46 15 -51 77 -25 40 17 73 20 73 5 0 -18 68 -22 123
-6 51 15 124 62 113 73 -2 2 -27 -7 -54 -21 -66 -34 -121 -42 -147 -22 -20 14
-20 14 1 43 11 15 37 36 57 46 21 10 35 23 31 28 -8 13 -24 11 -70 -10z"/>
<path d="M3163 854 c-9 -25 12 -38 31 -19 9 9 14 21 11 26 -10 14 -35 10 -42
-7z"/>
</g>
</svg>
